<svg height="512pt" viewBox="-91 0 512 512" width="512pt" xmlns="http://www.w3.org/2000/svg"><g fill="#fcbd8a"><path d="m126.621094 0c-29.742188 0-53.941406 24.195312-53.941406 53.9375s24.199218 53.941406 53.941406 53.941406c29.742187 0 53.9375-24.199218 53.9375-53.941406s-24.195313-53.9375-53.9375-53.9375zm0 0"/><path d="m17.933594 284.265625-17.933594-24.140625 31.59375-23.46875 43.152344-111.644531h101.257812l59.671875 85.097656h37.179688v30.074219h-52.824219l-59.671875-85.097656h-64.992187l-38.855469 100.523437zm0 0"/><path d="m82.03125 471.910156h30.070312v40.089844h-30.070312zm0 0"/><path d="m144.058594 471.910156h30.070312v40.089844h-30.070312zm0 0"/></g><path d="m321.402344 96.664062-7.929688-16.179687-8.125 5.992187c-7.445312-14.367187-15.207031-27.199218-15.660156-27.941406l-12.851562-21.183594-12.859376 21.183594c-.449218.742188-8.210937 13.574219-15.660156 27.941406l-8.125-5.992187-7.925781 16.179687c-.75 1.535157-18.183594 37.925782.355469 70.46875 7.371094 12.933594 21.171875 20.855469 35.859375 20.851563 1.183593 0 2.378906-.050781 3.574219-.15625.40625-.035156 1.085937-.09375 1.371093-.09375h6.8125c.285157 0 .96875.0625 1.371094.09375 15.996094 1.402344 31.46875-6.71875 39.433594-20.695313 18.542969-32.542968 1.109375-68.933593.359375-70.46875zm0 0" fill="#ffda2d"/><path d="m79.269531 217.253906-10.332031-77.207031 5.808594-15.035156h101.257812l9.273438 13.226562-11.304688 79.015625zm0 0" fill="#00ccb2"/><path d="m79.269531 217.253906-30.027343 269.691406h155.167968l-30.4375-269.691406zm0 0" fill="#00ddc1"/><path d="m144.058594 471.910156h30.070312v40.089844h-30.070312zm0 0" fill="#f4a971"/><path d="m180.558594 53.9375c0-29.578125-23.933594-53.660156-53.453125-53.9257812v107.8554692c29.519531-.265626 53.453125-24.347657 53.453125-53.929688zm0 0" fill="#f4a971"/><path d="m235.675781 210.109375-59.671875-85.097656h-48.898437v30.074219h33.253906l59.671875 85.097656h52.824219v-30.074219zm0 0" fill="#f4a971"/><path d="m173.972656 217.253906 11.304688-79.015625-9.273438-13.226562h-48.898437v92.242187zm0 0" fill="#00ab94"/><path d="m173.972656 217.253906h-46.867187v269.691406h77.304687zm0 0" fill="#00ccb2"/><path d="m79.269531 217.253906-30.027343 269.691406h94.816406l29.914062-269.691406zm0 0" fill="#00ccb2"/><path d="m127.105469 486.945312h16.953125l29.914062-269.691406h-46.867187zm0 0" fill="#00ab94"/><path d="m79.269531 217.253906 96.734375-92.242187 9.273438 13.226562-11.304688 79.015625zm0 0" fill="#00ddc1"/><path d="m176.003906 125.011719-48.898437 46.625v45.617187h46.867187l11.304688-79.015625zm0 0" fill="#00ccb2"/><path d="m321.402344 96.664062-7.929688-16.179687-8.125 5.992187c-7.445312-14.367187-15.207031-27.199218-15.660156-27.941406l-12.851562-21.183594v150.382813h3.402343c.285157 0 .96875.058594 1.371094.09375 15.996094 1.402344 31.472656-6.71875 39.433594-20.695313 18.542969-32.542968 1.109375-68.933593.359375-70.46875zm0 0" fill="#fdbf00"/><path d="m289.46875 153.554688-12.632812-19.59375-12.636719 19.59375c-5.886719 9.128906-6.382813 13.109374-6.382813 16.125 0 10.09375 8.53125 18.304687 19.019532 18.304687 10.484374 0 19.015624-8.210937 19.015624-18.304687 0-3.015626-.492187-7-6.382812-16.125zm0 0" fill="#fd982c"/><path d="m289.46875 153.554688-12.632812-19.59375v54.023437c10.484374 0 19.015624-8.210937 19.015624-18.304687 0-3.015626-.492187-7-6.382812-16.125zm0 0" fill="#fa502e"/></svg>